<svg width="24" height="14" viewBox="0 0 24 14" fill="none" xmlns="http://www.w3.org/2000/svg">
<path d="M23.7052 12.601C22.7318 10.984 20.2244 9.04101 19.1893 8.19551C18.906 7.96401 18.8757 7.56351 19.1335 7.30751C21.109 5.34801 22.689 3.09651 23.2328 1.73601C23.4728 1.13501 22.9761 0.500014 22.2762 0.500014H20.2434C19.5733 0.500014 19.1812 0.722014 18.9943 1.07551C17.3525 4.18101 15.9442 5.52501 14.9583 6.31051C14.4064 6.75051 13.5457 6.38601 13.5457 5.71651C13.5457 4.42651 13.5457 2.75901 13.5457 1.57651C13.5457 1.00301 13.0376 0.539014 12.4109 0.539014L8.6972 0.500014C8.22974 0.500014 7.9627 0.988514 8.24329 1.33101L8.85645 2.14351C9.0872 2.42501 9.21179 2.76751 9.21179 3.11901L9.20854 6.77801C9.20854 7.41451 8.37274 7.72551 7.87658 7.27951C6.19795 5.77051 4.74141 2.68901 4.21708 1.21551C4.06541 0.789014 3.63262 0.501014 3.14187 0.500014L1.13933 0.495514C0.388037 0.495514 -0.161213 1.15301 0.0429954 1.81501C1.87275 7.74351 5.62704 13.3835 12.3177 13.995C12.9769 14.055 13.5457 13.565 13.5457 12.9585V11.0355C13.5457 10.484 14.0142 10.01 14.6165 9.99601C14.6377 9.99551 14.6588 9.99551 14.6799 9.99551C16.4495 9.99551 18.4315 12.373 19.1248 13.485C19.3242 13.805 19.6968 14 20.0998 14H22.7935C23.5795 14 24.0838 13.2305 23.7052 12.601Z" fill="white"/>
</svg>
